<?xml version='1.0' encoding='utf-8'?>
<svg xmlns="http://www.w3.org/2000/svg" width="768" height="768" viewBox="0 0 768 768"><g id="pixels"><rect x="48" y="48" width="24" height="24" fill="#3B4449" /><rect x="48" y="696" width="24" height="24" fill="#3B4449" /><rect x="72" y="48" width="24" height="24" fill="#3B4449" /><rect x="72" y="696" width="24" height="24" fill="#3B4449" /><rect x="96" y="48" width="24" height="24" fill="#3B4449" /><rect x="96" y="696" width="24" height="24" fill="#3B4449" /><rect x="120" y="48" width="24" height="24" fill="#3B4449" /><rect x="120" y="696" width="24" height="24" fill="#3B4449" /><rect x="144" y="48" width="24" height="24" fill="#3B4449" /><rect x="144" y="696" width="24" height="24" fill="#3B4449" /><rect x="168" y="48" width="24" height="24" fill="#3B4449" /><rect x="168" y="696" width="24" height="24" fill="#3B4449" /><rect x="192" y="48" width="24" height="24" fill="#3B4449" /><rect x="192" y="696" width="24" height="24" fill="#3B4449" /><rect x="216" y="48" width="24" height="24" fill="#3B4449" /><rect x="216" y="696" width="24" height="24" fill="#3B4449" /><rect x="240" y="48" width="24" height="24" fill="#3B4449" /><rect x="240" y="696" width="24" height="24" fill="#3B4449" /><rect x="264" y="48" width="24" height="24" fill="#3B4449" /><rect x="264" y="696" width="24" height="24" fill="#3B4449" /><rect x="288" y="48" width="24" height="24" fill="#3B4449" /><rect x="288" y="696" width="24" height="24" fill="#3B4449" /><rect x="312" y="48" width="24" height="24" fill="#3B4449" /><rect x="312" y="696" width="24" height="24" fill="#3B4449" /><rect x="336" y="48" width="24" height="24" fill="#3B4449" /><rect x="336" y="696" width="24" height="24" fill="#3B4449" /><rect x="360" y="48" width="24" height="24" fill="#3B4449" /><rect x="360" y="696" width="24" height="24" fill="#3B4449" /><rect x="384" y="48" width="24" height="24" fill="#3B4449" /><rect x="384" y="696" width="24" height="24" fill="#3B4449" /><rect x="408" y="48" width="24" height="24" fill="#3B4449" /><rect x="408" y="696" width="24" height="24" fill="#3B4449" /><rect x="432" y="48" width="24" height="24" fill="#3B4449" /><rect x="432" y="696" width="24" height="24" fill="#3B4449" /><rect x="456" y="48" width="24" height="24" fill="#3B4449" /><rect x="456" y="696" width="24" height="24" fill="#3B4449" /><rect x="480" y="48" width="24" height="24" fill="#3B4449" /><rect x="480" y="696" width="24" height="24" fill="#3B4449" /><rect x="504" y="48" width="24" height="24" fill="#3B4449" /><rect x="504" y="696" width="24" height="24" fill="#3B4449" /><rect x="528" y="48" width="24" height="24" fill="#3B4449" /><rect x="528" y="696" width="24" height="24" fill="#3B4449" /><rect x="552" y="48" width="24" height="24" fill="#3B4449" /><rect x="552" y="696" width="24" height="24" fill="#3B4449" /><rect x="576" y="48" width="24" height="24" fill="#3B4449" /><rect x="576" y="696" width="24" height="24" fill="#3B4449" /><rect x="600" y="48" width="24" height="24" fill="#3B4449" /><rect x="600" y="696" width="24" height="24" fill="#3B4449" /><rect x="624" y="48" width="24" height="24" fill="#3B4449" /><rect x="624" y="696" width="24" height="24" fill="#3B4449" /><rect x="648" y="48" width="24" height="24" fill="#3B4449" /><rect x="648" y="696" width="24" height="24" fill="#3B4449" /><rect x="672" y="48" width="24" height="24" fill="#3B4449" /><rect x="672" y="696" width="24" height="24" fill="#3B4449" /><rect x="696" y="48" width="24" height="24" fill="#3B4449" /><rect x="696" y="696" width="24" height="24" fill="#3B4449" /><rect x="48" y="48" width="24" height="24" fill="#3B4449" /><rect x="696" y="48" width="24" height="24" fill="#3B4449" /><rect x="48" y="72" width="24" height="24" fill="#3B4449" /><rect x="696" y="72" width="24" height="24" fill="#3B4449" /><rect x="48" y="96" width="24" height="24" fill="#3B4449" /><rect x="696" y="96" width="24" height="24" fill="#3B4449" /><rect x="48" y="120" width="24" height="24" fill="#3B4449" /><rect x="696" y="120" width="24" height="24" fill="#3B4449" /><rect x="48" y="144" width="24" height="24" fill="#3B4449" /><rect x="696" y="144" width="24" height="24" fill="#3B4449" /><rect x="48" y="168" width="24" height="24" fill="#3B4449" /><rect x="696" y="168" width="24" height="24" fill="#3B4449" /><rect x="48" y="192" width="24" height="24" fill="#3B4449" /><rect x="696" y="192" width="24" height="24" fill="#3B4449" /><rect x="48" y="216" width="24" height="24" fill="#3B4449" /><rect x="696" y="216" width="24" height="24" fill="#3B4449" /><rect x="48" y="240" width="24" height="24" fill="#3B4449" /><rect x="696" y="240" width="24" height="24" fill="#3B4449" /><rect x="48" y="264" width="24" height="24" fill="#3B4449" /><rect x="696" y="264" width="24" height="24" fill="#3B4449" /><rect x="48" y="288" width="24" height="24" fill="#3B4449" /><rect x="696" y="288" width="24" height="24" fill="#3B4449" /><rect x="48" y="312" width="24" height="24" fill="#3B4449" /><rect x="696" y="312" width="24" height="24" fill="#3B4449" /><rect x="48" y="336" width="24" height="24" fill="#3B4449" /><rect x="696" y="336" width="24" height="24" fill="#3B4449" /><rect x="48" y="360" width="24" height="24" fill="#3B4449" /><rect x="696" y="360" width="24" height="24" fill="#3B4449" /><rect x="48" y="384" width="24" height="24" fill="#3B4449" /><rect x="696" y="384" width="24" height="24" fill="#3B4449" /><rect x="48" y="408" width="24" height="24" fill="#3B4449" /><rect x="696" y="408" width="24" height="24" fill="#3B4449" /><rect x="48" y="432" width="24" height="24" fill="#3B4449" /><rect x="696" y="432" width="24" height="24" fill="#3B4449" /><rect x="48" y="456" width="24" height="24" fill="#3B4449" /><rect x="696" y="456" width="24" height="24" fill="#3B4449" /><rect x="48" y="480" width="24" height="24" fill="#3B4449" /><rect x="696" y="480" width="24" height="24" fill="#3B4449" /><rect x="48" y="504" width="24" height="24" fill="#3B4449" /><rect x="696" y="504" width="24" height="24" fill="#3B4449" /><rect x="48" y="528" width="24" height="24" fill="#3B4449" /><rect x="696" y="528" width="24" height="24" fill="#3B4449" /><rect x="48" y="552" width="24" height="24" fill="#3B4449" /><rect x="696" y="552" width="24" height="24" fill="#3B4449" /><rect x="48" y="576" width="24" height="24" fill="#3B4449" /><rect x="696" y="576" width="24" height="24" fill="#3B4449" /><rect x="48" y="600" width="24" height="24" fill="#3B4449" /><rect x="696" y="600" width="24" height="24" fill="#3B4449" /><rect x="48" y="624" width="24" height="24" fill="#3B4449" /><rect x="696" y="624" width="24" height="24" fill="#3B4449" /><rect x="48" y="648" width="24" height="24" fill="#3B4449" /><rect x="696" y="648" width="24" height="24" fill="#3B4449" /><rect x="48" y="672" width="24" height="24" fill="#3B4449" /><rect x="696" y="672" width="24" height="24" fill="#3B4449" /><rect x="48" y="696" width="24" height="24" fill="#3B4449" /><rect x="696" y="696" width="24" height="24" fill="#3B4449" /><rect x="72" y="96" width="24" height="24" fill="#C86F43" /><rect x="96" y="120" width="24" height="24" fill="#C86F43" /><rect x="120" y="144" width="24" height="24" fill="#C86F43" /><rect x="96" y="96" width="24" height="24" fill="#C86F43" /><rect x="120" y="120" width="24" height="24" fill="#C86F43" /><rect x="72" y="96" width="24" height="24" fill="#C86F43" /><rect x="96" y="120" width="24" height="24" fill="#C86F43" /><rect x="120" y="144" width="24" height="24" fill="#C86F43" /><rect x="96" y="96" width="24" height="24" fill="#C86F43" /><rect x="120" y="120" width="24" height="24" fill="#C86F43" /><rect x="672" y="96" width="24" height="24" fill="#C86F43" /><rect x="648" y="120" width="24" height="24" fill="#C86F43" /><rect x="624" y="144" width="24" height="24" fill="#C86F43" /><rect x="648" y="96" width="24" height="24" fill="#C86F43" /><rect x="624" y="120" width="24" height="24" fill="#C86F43" /><rect x="72" y="96" width="24" height="24" fill="#C86F43" /><rect x="96" y="120" width="24" height="24" fill="#C86F43" /><rect x="120" y="144" width="24" height="24" fill="#C86F43" /><rect x="96" y="96" width="24" height="24" fill="#C86F43" /><rect x="120" y="120" width="24" height="24" fill="#C86F43" /><rect x="72" y="648" width="24" height="24" fill="#C86F43" /><rect x="96" y="624" width="24" height="24" fill="#C86F43" /><rect x="120" y="600" width="24" height="24" fill="#C86F43" /><rect x="96" y="648" width="24" height="24" fill="#C86F43" /><rect x="120" y="624" width="24" height="24" fill="#C86F43" /><rect x="72" y="96" width="24" height="24" fill="#C86F43" /><rect x="96" y="120" width="24" height="24" fill="#C86F43" /><rect x="120" y="144" width="24" height="24" fill="#C86F43" /><rect x="96" y="96" width="24" height="24" fill="#C86F43" /><rect x="120" y="120" width="24" height="24" fill="#C86F43" /><rect x="672" y="648" width="24" height="24" fill="#C86F43" /><rect x="648" y="624" width="24" height="24" fill="#C86F43" /><rect x="624" y="600" width="24" height="24" fill="#C86F43" /><rect x="648" y="648" width="24" height="24" fill="#C86F43" /><rect x="624" y="624" width="24" height="24" fill="#C86F43" /><rect x="192" y="216" width="24" height="24" fill="#3B4449" /><rect x="192" y="240" width="24" height="24" fill="#3B4449" /><rect x="216" y="216" width="24" height="24" fill="#3B4449" /><rect x="216" y="240" width="24" height="24" fill="#3B4449" /><rect x="240" y="216" width="24" height="24" fill="#3B4449" /><rect x="240" y="240" width="24" height="24" fill="#3B4449" /><rect x="264" y="216" width="24" height="24" fill="#3B4449" /><rect x="264" y="240" width="24" height="24" fill="#3B4449" /><rect x="288" y="216" width="24" height="24" fill="#3B4449" /><rect x="288" y="240" width="24" height="24" fill="#3B4449" /><rect x="312" y="216" width="24" height="24" fill="#3B4449" /><rect x="312" y="240" width="24" height="24" fill="#3B4449" /><rect x="336" y="216" width="24" height="24" fill="#3B4449" /><rect x="336" y="240" width="24" height="24" fill="#3B4449" /><rect x="360" y="216" width="24" height="24" fill="#3B4449" /><rect x="360" y="240" width="24" height="24" fill="#3B4449" /><rect x="384" y="216" width="24" height="24" fill="#3B4449" /><rect x="384" y="240" width="24" height="24" fill="#3B4449" /><rect x="408" y="216" width="24" height="24" fill="#3B4449" /><rect x="408" y="240" width="24" height="24" fill="#3B4449" /><rect x="432" y="216" width="24" height="24" fill="#3B4449" /><rect x="432" y="240" width="24" height="24" fill="#3B4449" /><rect x="456" y="216" width="24" height="24" fill="#3B4449" /><rect x="456" y="240" width="24" height="24" fill="#3B4449" /><rect x="480" y="216" width="24" height="24" fill="#3B4449" /><rect x="480" y="240" width="24" height="24" fill="#3B4449" /><rect x="504" y="216" width="24" height="24" fill="#3B4449" /><rect x="504" y="240" width="24" height="24" fill="#3B4449" /><rect x="528" y="216" width="24" height="24" fill="#3B4449" /><rect x="528" y="240" width="24" height="24" fill="#3B4449" /><rect x="552" y="216" width="24" height="24" fill="#3B4449" /><rect x="552" y="240" width="24" height="24" fill="#3B4449" /><rect x="384" y="264" width="24" height="24" fill="#3B4449" /><rect x="408" y="264" width="24" height="24" fill="#3B4449" /><rect x="384" y="288" width="24" height="24" fill="#3B4449" /><rect x="408" y="288" width="24" height="24" fill="#3B4449" /><rect x="384" y="312" width="24" height="24" fill="#3B4449" /><rect x="408" y="312" width="24" height="24" fill="#3B4449" /><rect x="384" y="336" width="24" height="24" fill="#3B4449" /><rect x="408" y="336" width="24" height="24" fill="#3B4449" /><rect x="384" y="360" width="24" height="24" fill="#3B4449" /><rect x="408" y="360" width="24" height="24" fill="#3B4449" /><rect x="384" y="384" width="24" height="24" fill="#3B4449" /><rect x="408" y="384" width="24" height="24" fill="#3B4449" /><rect x="384" y="408" width="24" height="24" fill="#3B4449" /><rect x="408" y="408" width="24" height="24" fill="#3B4449" /><rect x="384" y="432" width="24" height="24" fill="#3B4449" /><rect x="408" y="432" width="24" height="24" fill="#3B4449" /><rect x="384" y="456" width="24" height="24" fill="#3B4449" /><rect x="408" y="456" width="24" height="24" fill="#3B4449" /><rect x="384" y="480" width="24" height="24" fill="#3B4449" /><rect x="408" y="480" width="24" height="24" fill="#3B4449" /><rect x="384" y="504" width="24" height="24" fill="#3B4449" /><rect x="408" y="504" width="24" height="24" fill="#3B4449" /><rect x="384" y="528" width="24" height="24" fill="#3B4449" /><rect x="408" y="528" width="24" height="24" fill="#3B4449" /><rect x="384" y="552" width="24" height="24" fill="#3B4449" /><rect x="408" y="552" width="24" height="24" fill="#3B4449" /></g></svg>